<svg width="113" height="32" viewBox="0 0 113 32" fill="none" xmlns="http://www.w3.org/2000/svg">
<rect x="0.5" y="0.5" width="112" height="31" rx="4.5" fill="white"/>
<path d="M14.6514 18.4023H10.4814L9.54492 21H8.19141L11.9922 11.0469H13.1406L16.9482 21H15.6016L14.6514 18.4023ZM10.8779 17.3223H14.2617L12.5664 12.667L10.8779 17.3223ZM18.2881 21V11.0469H21.0977C21.9635 11.0469 22.7292 11.2383 23.3945 11.6211C24.0599 12.0039 24.5726 12.5485 24.9326 13.2549C25.2972 13.9613 25.4818 14.7725 25.4863 15.6885V16.3242C25.4863 17.263 25.304 18.0856 24.9395 18.792C24.5794 19.4984 24.0622 20.0407 23.3877 20.4189C22.7178 20.7972 21.9362 20.9909 21.043 21H18.2881ZM19.6006 12.127V19.9268H20.9814C21.9932 19.9268 22.7793 19.6123 23.3398 18.9834C23.9049 18.3545 24.1875 17.459 24.1875 16.2969V15.7158C24.1875 14.5856 23.9209 13.7083 23.3877 13.084C22.859 12.4551 22.1071 12.1361 21.1318 12.127H19.6006ZM28.8838 21H27.5713V11.0469H28.8838V21ZM38.6113 17.8418C38.4883 18.8945 38.0986 19.708 37.4424 20.2822C36.7907 20.8519 35.9225 21.1367 34.8379 21.1367C33.6621 21.1367 32.7188 20.7152 32.0078 19.8721C31.3014 19.029 30.9482 17.901 30.9482 16.4883V15.5312C30.9482 14.6061 31.1123 13.7926 31.4404 13.0908C31.7731 12.389 32.2425 11.8512 32.8486 11.4775C33.4548 11.0993 34.1566 10.9102 34.9541 10.9102C36.0114 10.9102 36.859 11.2064 37.4971 11.7988C38.1351 12.3867 38.5065 13.2025 38.6113 14.2461H37.292C37.1781 13.4531 36.9297 12.8789 36.5469 12.5234C36.1686 12.168 35.6377 11.9902 34.9541 11.9902C34.1156 11.9902 33.457 12.3001 32.9785 12.9199C32.5046 13.5397 32.2676 14.4215 32.2676 15.5654V16.5293C32.2676 17.6094 32.4932 18.4684 32.9443 19.1064C33.3955 19.7445 34.0267 20.0635 34.8379 20.0635C35.5671 20.0635 36.1253 19.8994 36.5127 19.5713C36.9046 19.2386 37.1644 18.6621 37.292 17.8418H38.6113ZM41.8174 21H40.5049V11.0469H41.8174V21ZM51.8799 16.3447C51.8799 17.32 51.7158 18.1722 51.3877 18.9014C51.0596 19.626 50.5947 20.1797 49.9932 20.5625C49.3916 20.9453 48.6898 21.1367 47.8877 21.1367C47.1038 21.1367 46.4089 20.9453 45.8027 20.5625C45.1966 20.1751 44.7249 19.626 44.3877 18.915C44.055 18.1995 43.8841 17.3724 43.875 16.4336V15.7158C43.875 14.7588 44.0413 13.9134 44.374 13.1797C44.7067 12.446 45.1761 11.8854 45.7822 11.498C46.3929 11.1061 47.0902 10.9102 47.874 10.9102C48.6715 10.9102 49.3734 11.1038 49.9795 11.4912C50.5902 11.874 51.0596 12.4323 51.3877 13.166C51.7158 13.8952 51.8799 14.7451 51.8799 15.7158V16.3447ZM50.5742 15.7021C50.5742 14.5218 50.3372 13.6172 49.8633 12.9883C49.3893 12.3548 48.7262 12.0381 47.874 12.0381C47.0446 12.0381 46.3906 12.3548 45.9121 12.9883C45.4382 13.6172 45.1943 14.4922 45.1807 15.6133V16.3447C45.1807 17.4886 45.4199 18.3887 45.8984 19.0449C46.3815 19.6966 47.0446 20.0225 47.8877 20.0225C48.7354 20.0225 49.3916 19.7148 49.8564 19.0996C50.3213 18.4798 50.5605 17.5934 50.5742 16.4404V15.7021ZM61.498 21H60.1787L55.168 13.3301V21H53.8486V11.0469H55.168L60.1924 18.751V11.0469H61.498V21ZM69.4482 18.4023H65.2783L64.3418 21H62.9883L66.7891 11.0469H67.9375L71.7451 21H70.3984L69.4482 18.4023ZM65.6748 17.3223H69.0586L67.3633 12.667L65.6748 17.3223ZM76.7354 16.9736H74.3975V21H73.0781V11.0469H76.373C77.4941 11.0469 78.3555 11.3021 78.957 11.8125C79.5632 12.3229 79.8662 13.0658 79.8662 14.041C79.8662 14.6608 79.6976 15.2008 79.3604 15.6611C79.0277 16.1214 78.5628 16.4655 77.9658 16.6934L80.3037 20.918V21H78.8955L76.7354 16.9736ZM74.3975 15.9004H76.4141C77.0658 15.9004 77.583 15.7318 77.9658 15.3945C78.3532 15.0573 78.5469 14.6061 78.5469 14.041C78.5469 13.4258 78.3623 12.9541 77.9932 12.626C77.6286 12.2979 77.0999 12.1315 76.4072 12.127H74.3975V15.9004Z" fill="black"/>
<path d="M93.6667 20C92.9333 20 92.34 20.6 92.34 21.3333C92.34 22.0666 92.9333 22.6666 93.6667 22.6666C94.4 22.6666 95 22.0666 95 21.3333C95 20.6 94.4 20 93.6667 20ZM89.6667 9.33331V10.6666H91L93.4 15.7266L92.5 17.36C92.3933 17.5466 92.3333 17.7666 92.3333 18C92.3333 18.7333 92.9333 19.3333 93.6667 19.3333H101.667V18H93.9467C93.8533 18 93.78 17.9266 93.78 17.8333L93.8 17.7533L94.4 16.6666H99.3667C99.8667 16.6666 100.307 16.3933 100.533 15.98L102.92 11.6533C102.973 11.56 103 11.4466 103 11.3333C103 10.9666 102.7 10.6666 102.333 10.6666H92.4733L91.8467 9.33331H89.6667ZM100.333 20C99.6 20 99.0067 20.6 99.0067 21.3333C99.0067 22.0666 99.6 22.6666 100.333 22.6666C101.067 22.6666 101.667 22.0666 101.667 21.3333C101.667 20.6 101.067 20 100.333 20Z" fill="#82B5A5"/>
<rect x="0.5" y="0.5" width="112" height="31" rx="4.5" stroke="#82B5A5"/>
</svg>
