<svg width="124" height="31" viewBox="0 0 124 31" fill="none" xmlns="http://www.w3.org/2000/svg">
<path d="M102.378 24.628C102.378 24.628 107.049 24.2938 110.791 24.1752C114.533 24.0541 116.744 23.8167 117.868 21.3852C118.994 18.956 119.391 18.4426 120.895 17.0863C122.402 15.7301 124.528 12.09 121.69 10.7943C118.851 9.49859 110.522 16.6286 110.522 16.6286C110.522 16.6286 101.879 21.6055 102.378 24.628Z" fill="url(#paint0_linear)"/>
<path d="M100.108 23.049C100.108 23.049 100.888 21.034 102.45 19.4743C104.012 17.9146 104.589 17.3576 105.085 16.1224C105.582 14.8873 105.64 10.6369 106.424 9.76984C107.209 8.90281 120.435 3.71273 120.435 3.71273C120.435 3.71273 117.132 0.622414 115.235 1.22788C113.339 1.83335 112.448 3.35187 111.472 3.79991C110.496 4.24796 108.558 3.74663 107.001 5.42984C105.444 7.11304 104.741 9.2346 103.588 9.84734C102.436 10.4601 100.59 11.3876 100.193 14.415C99.7958 17.4423 98.3039 25.0228 98.3039 25.0228L100.108 23.049Z" fill="url(#paint1_linear)"/>
<path d="M98.442 24.3277C101.503 21.5038 101.767 19.4331 103.08 15.8948C104.235 12.7802 103.094 10.5618 107.066 9.03601C111.891 7.18328 109.435 5.61148 113.613 3.62554C116.039 2.47273 118.062 0.297883 120.367 1.32718C122.881 2.44609 122.237 4.64515 122.319 7.15906C122.38 8.96577 124.371 11.4724 120.963 13.0297C117.553 14.5869 119.466 18.4062 117.304 20.4019C114.405 23.078 110.653 20.2711 106.776 22.2958C101.559 25.0204 97.7275 24.9889 98.442 24.3277Z" fill="url(#paint2_linear)"/>
<path d="M116.119 8.49351C113.126 11.5644 110.241 14.7492 107.725 18.1641C107.09 19.0117 106.502 19.8884 105.926 20.7676C105.306 21.7048 104.615 22.613 103.826 23.4462C103.039 24.2817 100.191 27.9751 98.3911 29.1376C95.9595 30.7094 91.0988 30.1741 96.0637 25.8511C96.9186 25.403 101.496 22.4241 102.247 21.7751C102.998 21.126 103.688 20.3946 104.332 19.6123C105.025 18.7598 105.727 17.9194 106.463 17.1202C109.394 13.9016 112.61 11.0171 115.906 8.26343C116.202 8.02124 116.381 8.21741 116.119 8.49351Z" fill="#E9E8D8"/>
<path d="M116.625 17.8831C115.879 18.7768 114.727 19.2176 113.61 19.4525C112.477 19.6923 111.321 19.7552 110.215 19.9805C107.999 20.4188 105.909 21.4505 104.286 22.9691L103.797 22.4144C105.603 20.8814 107.841 19.9199 110.147 19.5784C111.302 19.4016 112.45 19.3944 113.567 19.2127C114.669 19.0359 115.8 18.6654 116.567 17.8298C116.698 17.6845 116.751 17.7233 116.625 17.8831Z" fill="#E9E8D8"/>
<path d="M121.067 11.3658C119.444 12.9183 117.274 13.8725 115.034 14.2019C113.918 14.3762 112.799 14.461 111.738 14.7129C110.692 14.9648 109.665 15.4176 109.069 16.2241L108.488 15.7664C108.885 15.282 109.403 14.9236 109.941 14.6717C110.484 14.4174 111.05 14.26 111.617 14.1534C112.753 13.9427 113.879 13.9161 114.979 13.7974C117.168 13.5843 119.323 12.7681 121.011 11.3077C121.164 11.1794 121.21 11.2278 121.067 11.3658Z" fill="#E9E8D8"/>
<path d="M107.536 9.74803C106.645 10.7822 105.756 11.8333 105.078 13.0103C104.39 14.1849 103.969 15.4854 103.923 16.8393C103.881 17.515 103.838 18.2173 103.697 18.9051C103.559 19.5905 103.349 20.2638 103.073 20.9104C102.516 22.2174 101.679 23.3864 100.622 24.335L100.142 23.7707C101.152 22.9351 101.983 21.8695 102.549 20.6707C102.836 20.0705 103.06 19.4424 103.218 18.7962C103.378 18.1495 103.448 17.4883 103.516 16.8005C103.584 16.1176 103.71 15.4104 103.949 14.7516C104.182 14.0904 104.501 13.4656 104.872 12.8795C105.613 11.7049 106.548 10.6877 107.48 9.6899C107.643 9.52037 107.694 9.56639 107.536 9.74803Z" fill="#E9E8D8"/>
<path d="M117.161 2.93772C115.635 4.7517 114.368 6.77155 113.407 8.91975C112.913 9.98538 112.591 11.1212 112.024 12.2159C111.452 13.3009 110.653 14.2551 109.738 15.064L109.26 14.4973C110.154 13.778 110.941 12.9207 111.52 11.935C112.094 10.9517 112.482 9.80616 113.034 8.74295C114.109 6.61041 115.477 4.63852 117.098 2.88444C117.245 2.73186 117.294 2.77545 117.161 2.93772Z" fill="#E9E8D8"/>
<path d="M107.965 11.0317C107.459 12.5429 106.715 13.9936 106.463 15.5436L106.291 16.7327C106.221 17.1372 106.119 17.5392 105.984 17.9292C105.717 18.7138 105.318 19.4598 104.797 20.1234L104.233 19.6438C104.739 19.0844 105.151 18.4329 105.446 17.7233C105.596 17.3697 105.717 17.004 105.809 16.6286L106.061 15.4613C106.441 13.8531 107.287 12.4702 107.89 11.005C107.945 10.8742 108.008 10.8985 107.965 11.0317Z" fill="#E9E8D8"/>
<path d="M116.613 16.7715C115.533 16.9507 114.441 17.0645 113.346 17.1226C112.799 17.1517 112.249 17.1662 111.699 17.1687C111.15 17.1735 110.6 17.142 110.089 17.2244C109.58 17.3019 109.122 17.544 108.733 17.8855C108.338 18.2222 107.999 18.6412 107.631 19.0553C106.889 19.903 105.967 20.6077 104.95 21.1212L104.632 20.4527C105.594 20.0265 106.47 19.4258 107.212 18.663C107.589 18.2827 107.965 17.8613 108.423 17.5053C108.875 17.1469 109.445 16.8805 110.033 16.8223C110.614 16.7618 111.166 16.8247 111.707 16.8465C112.249 16.8732 112.794 16.8853 113.339 16.8829C114.429 16.8805 115.519 16.8223 116.601 16.6988C116.795 16.6746 116.805 16.74 116.613 16.7715Z" fill="#E9E8D8"/>
<path d="M105.802 18.8156L105.959 19.2781L105.32 18.9052L105.732 18.7744C105.741 18.7744 105.8 18.8083 105.802 18.8156Z" fill="#E9E8D8"/>
<path d="M110.394 7.97039C109.633 9.81586 109.517 11.8139 108.955 13.7466C108.691 14.7129 108.236 15.6598 107.689 16.4954L106.1 19.0141L105.487 18.6L107.212 16.1757C107.793 15.3813 108.251 14.5482 108.565 13.6182C109.214 11.78 109.452 9.75289 110.321 7.93648C110.399 7.77906 110.459 7.80812 110.394 7.97039Z" fill="#E9E8D8"/>
<path d="M120.68 7.80568C119.425 9.31693 117.798 10.5327 115.979 11.344C115.523 11.5451 115.058 11.7267 114.581 11.8793C114.107 12.0343 113.63 12.1578 113.174 12.3079C112.719 12.4581 112.285 12.6349 111.91 12.8819C111.535 13.129 111.227 13.4438 111.05 13.8168L110.394 13.4729C110.672 12.9691 111.106 12.5889 111.566 12.3225C112.031 12.0537 112.528 11.8865 113.012 11.7582C113.499 11.6274 113.981 11.5305 114.446 11.4094C114.912 11.2867 115.372 11.1396 115.824 10.9687C117.628 10.2833 119.289 9.18615 120.621 7.75724C120.74 7.63131 120.791 7.67248 120.68 7.80568Z" fill="#E9E8D8"/>
<path d="M117.815 11.9713C117.473 12.1118 117.132 12.2571 116.814 12.4484C116.657 12.5453 116.507 12.6494 116.371 12.773L115.976 13.1629C115.458 13.7078 114.748 14.042 114.029 14.2455L113.983 14.0662C114.69 13.8943 115.378 13.6037 115.909 13.0878L116.318 12.7124C116.461 12.5913 116.621 12.4896 116.783 12.3976C117.11 12.2159 117.459 12.0851 117.805 11.9568C117.868 11.9301 117.875 11.9471 117.815 11.9713Z" fill="#E9E8D8"/>
<path d="M115.143 15.7567C114.489 15.8366 113.857 16.0449 113.276 16.3428C112.985 16.4905 112.707 16.6673 112.399 16.803C112.087 16.9434 111.772 17.0064 111.46 17.113L111.399 16.9386C111.714 16.8466 112.05 16.7909 112.344 16.6722C112.644 16.5535 112.93 16.3888 113.232 16.2508C113.835 15.9747 114.482 15.7906 115.141 15.7373C115.201 15.7325 115.201 15.7494 115.143 15.7567Z" fill="#E9E8D8"/>
<path d="M114.669 20.5423C113.801 20.5157 112.973 20.2105 112.135 20.0362C111.297 19.8569 110.425 19.8448 109.592 20.0144L109.558 19.8327C110.423 19.685 111.312 19.7262 112.157 19.9369C113 20.1403 113.806 20.4673 114.669 20.523C114.744 20.5278 114.744 20.5448 114.669 20.5423Z" fill="#E9E8D8"/>
<path d="M112.128 7.68946C111.786 8.09876 111.522 8.56376 111.268 9.02876L110.508 10.431L108.984 13.238L108.822 13.1484L111.212 8.9997C111.479 8.53954 111.757 8.07939 112.111 7.67735C112.176 7.6047 112.189 7.61681 112.128 7.68946Z" fill="#E9E8D8"/>
<path d="M108.013 13.0128C107.592 14.0808 106.696 14.8728 106.185 15.8609L106.022 15.7713C106.606 14.771 107.524 14.0445 107.994 13.0055C108.016 12.9595 108.033 12.9667 108.013 13.0128Z" fill="#E9E8D8"/>
<path d="M105.88 13.8337C104.964 14.8267 104.233 15.9819 103.724 17.2219L103.555 17.1469C104.121 15.9093 104.906 14.7734 105.865 13.8168C105.906 13.778 105.918 13.7901 105.88 13.8337Z" fill="#E9E8D8"/>
<path opacity="0.2" d="M119.13 1.78491C118.674 1.78491 118.188 1.91569 117.592 2.19421C117.497 2.23935 117.394 2.26337 117.289 2.26462C117.184 2.26588 117.08 2.24433 116.984 2.20147C116.507 1.98593 116.1 1.87694 115.773 1.87694C115.654 1.87694 115.548 1.89147 115.456 1.92054C114.441 2.24507 113.734 2.88929 113.111 3.45601C112.67 3.85804 112.254 4.24069 111.774 4.46108C111.353 4.65483 110.866 4.71054 110.35 4.76624C109.394 4.8728 108.403 4.98179 107.531 5.9239C106.88 6.62624 106.371 7.44483 105.921 8.16413C105.286 9.18132 104.736 10.058 103.93 10.4891L103.862 10.5255C102.76 11.1116 101.254 11.9108 100.912 14.5094C100.59 16.9652 99.573 22.2933 99.1516 24.4706C99.1273 24.599 99.0692 24.7176 98.982 24.8145C98.9263 24.9017 98.8513 24.9768 98.7641 25.0325C98.2434 25.3691 97.0179 26.1538 96.4778 26.4517C94.4265 28.256 94.6469 28.9293 94.6493 28.9366C94.6905 29.0455 94.9932 29.2199 95.6326 29.2199C96.4197 29.2199 97.3448 28.9487 97.9963 28.5297C99.2654 27.7111 101.225 25.3837 102.278 24.134C102.404 23.9838 102.588 23.8918 102.784 23.8773C104.182 23.7828 107.754 23.5503 110.767 23.4534C114.54 23.3323 116.289 23.0708 117.209 21.0848C118.335 18.6557 118.783 18.0187 120.411 16.5511C121.639 15.4394 122.908 13.1193 122.104 12.0028C121.944 11.78 121.922 11.4869 122.048 11.2448C122.397 10.5715 122.164 9.72382 121.917 8.83015C121.767 8.28765 121.612 7.72819 121.595 7.18327C121.578 6.68437 121.588 6.20726 121.6 5.7471C121.646 3.68851 121.6 2.6689 120.074 1.98835C119.762 1.8503 119.454 1.78491 119.13 1.78491ZM119.13 1.05835C119.536 1.05835 119.946 1.13827 120.367 1.32718C122.881 2.44608 122.237 4.64515 122.322 7.15905C122.365 8.47413 123.431 10.1573 122.695 11.579C123.862 13.1992 122.162 15.948 120.9 17.0863C119.396 18.4426 118.996 18.956 117.873 21.3851C116.746 23.8143 114.538 24.0541 110.796 24.1751C107.756 24.272 104.104 24.5118 102.84 24.5966C101.619 26.0448 99.7231 28.2778 98.3959 29.1351C97.5943 29.6534 96.5287 29.9416 95.6398 29.9416C93.8283 29.9416 92.7409 28.7452 96.0709 25.8462C96.41 25.667 97.3376 25.0906 98.379 24.4173C98.3911 24.3883 98.4129 24.3592 98.4468 24.3277C98.8222 22.3902 99.8757 16.8829 100.2 14.4101C100.597 11.3828 102.443 10.4576 103.596 9.84249C104.749 9.22976 105.451 7.10819 107.008 5.42499C108.565 3.74179 110.503 4.24554 111.479 3.79507C112.455 3.3446 113.339 1.83335 115.235 1.22788C115.405 1.1746 115.584 1.15038 115.773 1.15038C116.245 1.15038 116.766 1.30538 117.282 1.53788C117.897 1.24726 118.507 1.05835 119.13 1.05835Z" fill="#424242"/>
<mask id="path-21-outside-1" maskUnits="userSpaceOnUse" x="0.0171814" y="4.95599" width="93" height="21" fill="black">
<rect fill="white" x="0.0171814" y="4.95599" width="93" height="21"/>
<path d="M14.7212 16.36V24.844C13.2092 25.084 11.8252 25.204 10.5692 25.204C7.37718 25.204 4.98518 24.468 3.39318 22.996C1.80918 21.516 1.01718 19.232 1.01718 16.144C1.01718 13.072 1.82118 10.784 3.42918 9.27999C5.04518 7.76799 7.38118 7.01199 10.4372 7.01199C11.8052 7.01199 13.0812 7.16399 14.2652 7.46799V10.6C13.0332 10.296 11.8812 10.144 10.8092 10.144C9.44918 10.152 8.33718 10.352 7.47318 10.744C6.61718 11.136 5.97718 11.776 5.55318 12.664C5.12918 13.544 4.91718 14.72 4.91718 16.192C4.91718 17.592 5.11718 18.728 5.51718 19.6C5.91718 20.464 6.50518 21.096 7.28118 21.496C8.05718 21.888 9.03718 22.084 10.2212 22.084C10.5732 22.084 10.9172 22.072 11.2532 22.048V16.36H14.7212Z"/>
<path d="M17.3507 11.872H20.3627L20.6507 13.648H20.8187C21.1467 12.976 21.5947 12.48 22.1627 12.16C22.7387 11.84 23.3947 11.68 24.1307 11.68C24.4267 11.68 24.7587 11.712 25.1267 11.776V15.16C24.8307 15.096 24.4187 15.064 23.8907 15.064C23.3307 15.064 22.7827 15.176 22.2467 15.4C21.7187 15.616 21.3107 15.916 21.0227 16.3V25H17.3507V11.872Z"/>
<path d="M36.9204 19.54H29.6004C29.6324 20.252 29.7644 20.812 29.9964 21.22C30.2364 21.62 30.6044 21.912 31.1004 22.096C31.5964 22.272 32.2684 22.36 33.1164 22.36C34.0124 22.36 35.0564 22.216 36.2484 21.928V24.796C35.5924 24.956 34.9724 25.072 34.3884 25.144C33.8124 25.216 33.2284 25.252 32.6364 25.252C31.0684 25.252 29.7884 25.016 28.7964 24.544C27.8124 24.072 27.0804 23.332 26.6004 22.324C26.1284 21.316 25.8924 20.008 25.8924 18.4C25.8924 16.216 26.3844 14.548 27.3684 13.396C28.3604 12.236 29.7724 11.656 31.6044 11.656C33.3484 11.656 34.6684 12.24 35.5644 13.408C36.4684 14.568 36.9204 16.268 36.9204 18.508V19.54ZM31.5804 14.056C31.1404 14.056 30.7764 14.156 30.4884 14.356C30.2084 14.556 29.9884 14.896 29.8284 15.376C29.6764 15.856 29.5964 16.512 29.5884 17.344H33.4884C33.4804 16.512 33.4044 15.856 33.2604 15.376C33.1164 14.896 32.9084 14.556 32.6364 14.356C32.3644 14.156 32.0124 14.056 31.5804 14.056Z"/>
<path d="M49.2954 19.54H41.9754C42.0074 20.252 42.1394 20.812 42.3714 21.22C42.6114 21.62 42.9794 21.912 43.4754 22.096C43.9714 22.272 44.6434 22.36 45.4914 22.36C46.3874 22.36 47.4314 22.216 48.6234 21.928V24.796C47.9674 24.956 47.3474 25.072 46.7634 25.144C46.1874 25.216 45.6034 25.252 45.0114 25.252C43.4434 25.252 42.1634 25.016 41.1714 24.544C40.1874 24.072 39.4554 23.332 38.9754 22.324C38.5034 21.316 38.2674 20.008 38.2674 18.4C38.2674 16.216 38.7594 14.548 39.7434 13.396C40.7354 12.236 42.1474 11.656 43.9794 11.656C45.7234 11.656 47.0434 12.24 47.9394 13.408C48.8434 14.568 49.2954 16.268 49.2954 18.508V19.54ZM43.9554 14.056C43.5154 14.056 43.1514 14.156 42.8634 14.356C42.5834 14.556 42.3634 14.896 42.2034 15.376C42.0514 15.856 41.9714 16.512 41.9634 17.344H45.8634C45.8554 16.512 45.7794 15.856 45.6354 15.376C45.4914 14.896 45.2834 14.556 45.0114 14.356C44.7394 14.156 44.3874 14.056 43.9554 14.056Z"/>
<path d="M51.1944 11.872H54.2424L54.5064 13.24H54.6744C55.1224 12.72 55.6464 12.328 56.2464 12.064C56.8544 11.792 57.5224 11.656 58.2504 11.656C59.4984 11.656 60.4864 12.048 61.2144 12.832C61.9504 13.608 62.3184 14.844 62.3184 16.54V25H58.6464V16.792C58.6464 16.104 58.5024 15.616 58.2144 15.328C57.9344 15.04 57.5264 14.896 56.9904 14.896C56.5904 14.896 56.1984 14.98 55.8144 15.148C55.4304 15.308 55.1144 15.548 54.8664 15.868V25H51.1944V11.872Z"/>
<path d="M64.8116 25V11.872H68.4956V25H64.8116ZM66.6596 9.97599C65.8916 9.97599 65.3156 9.80399 64.9316 9.45999C64.5556 9.10799 64.3676 8.61199 64.3676 7.97199C64.3676 7.32399 64.5556 6.82799 64.9316 6.48399C65.3156 6.13199 65.8916 5.95599 66.6596 5.95599C67.4196 5.95599 67.9876 6.13199 68.3636 6.48399C68.7476 6.83599 68.9396 7.33199 68.9396 7.97199C68.9396 8.61199 68.7476 9.10799 68.3636 9.45999C67.9876 9.80399 67.4196 9.97599 66.6596 9.97599Z"/>
<path d="M81.5689 19.54H74.2489C74.2809 20.252 74.4129 20.812 74.6449 21.22C74.8849 21.62 75.2529 21.912 75.7489 22.096C76.2449 22.272 76.9169 22.36 77.7649 22.36C78.6609 22.36 79.7049 22.216 80.8969 21.928V24.796C80.2409 24.956 79.6209 25.072 79.0369 25.144C78.4609 25.216 77.8769 25.252 77.2849 25.252C75.7169 25.252 74.4369 25.016 73.4449 24.544C72.4609 24.072 71.7289 23.332 71.2489 22.324C70.7769 21.316 70.5409 20.008 70.5409 18.4C70.5409 16.216 71.0329 14.548 72.0169 13.396C73.0089 12.236 74.4209 11.656 76.2529 11.656C77.9969 11.656 79.3169 12.24 80.2129 13.408C81.1169 14.568 81.5689 16.268 81.5689 18.508V19.54ZM76.2289 14.056C75.7889 14.056 75.4249 14.156 75.1369 14.356C74.8569 14.556 74.6369 14.896 74.4769 15.376C74.3249 15.856 74.2449 16.512 74.2369 17.344H78.1369C78.1289 16.512 78.0529 15.856 77.9089 15.376C77.7649 14.896 77.5569 14.556 77.2849 14.356C77.0129 14.156 76.6609 14.056 76.2289 14.056Z"/>
<path d="M86.9479 25.252C85.5559 25.252 84.2919 25.064 83.1559 24.688V21.856C84.3319 22.232 85.5759 22.42 86.8879 22.42C87.6479 22.42 88.1959 22.312 88.5319 22.096C88.8759 21.872 89.0479 21.552 89.0479 21.136C89.0479 20.816 88.9639 20.572 88.7959 20.404C88.6279 20.228 88.3439 20.096 87.9439 20.008L86.0239 19.6C84.9359 19.368 84.1239 18.944 83.5879 18.328C83.0599 17.712 82.7959 16.88 82.7959 15.832C82.7959 14.992 83.0079 14.26 83.4319 13.636C83.8639 13.004 84.5079 12.516 85.3639 12.172C86.2199 11.828 87.2719 11.656 88.5199 11.656C89.6559 11.656 90.7159 11.784 91.6999 12.04V14.872C90.7719 14.616 89.7679 14.488 88.6879 14.488C86.9999 14.488 86.1559 14.924 86.1559 15.796C86.1559 16.084 86.2399 16.316 86.4079 16.492C86.5839 16.66 86.8679 16.788 87.2599 16.876L89.1799 17.284C90.2759 17.524 91.0879 17.94 91.6159 18.532C92.1519 19.124 92.4199 19.956 92.4199 21.028C92.4199 21.892 92.1999 22.644 91.7599 23.284C91.3279 23.916 90.6999 24.404 89.8759 24.748C89.0599 25.084 88.0839 25.252 86.9479 25.252Z"/>
</mask>
<path d="M14.7212 16.36V24.844C13.2092 25.084 11.8252 25.204 10.5692 25.204C7.37718 25.204 4.98518 24.468 3.39318 22.996C1.80918 21.516 1.01718 19.232 1.01718 16.144C1.01718 13.072 1.82118 10.784 3.42918 9.27999C5.04518 7.76799 7.38118 7.01199 10.4372 7.01199C11.8052 7.01199 13.0812 7.16399 14.2652 7.46799V10.6C13.0332 10.296 11.8812 10.144 10.8092 10.144C9.44918 10.152 8.33718 10.352 7.47318 10.744C6.61718 11.136 5.97718 11.776 5.55318 12.664C5.12918 13.544 4.91718 14.72 4.91718 16.192C4.91718 17.592 5.11718 18.728 5.51718 19.6C5.91718 20.464 6.50518 21.096 7.28118 21.496C8.05718 21.888 9.03718 22.084 10.2212 22.084C10.5732 22.084 10.9172 22.072 11.2532 22.048V16.36H14.7212Z" fill="black"/>
<path d="M17.3507 11.872H20.3627L20.6507 13.648H20.8187C21.1467 12.976 21.5947 12.48 22.1627 12.16C22.7387 11.84 23.3947 11.68 24.1307 11.68C24.4267 11.68 24.7587 11.712 25.1267 11.776V15.16C24.8307 15.096 24.4187 15.064 23.8907 15.064C23.3307 15.064 22.7827 15.176 22.2467 15.4C21.7187 15.616 21.3107 15.916 21.0227 16.3V25H17.3507V11.872Z" fill="black"/>
<path d="M36.9204 19.54H29.6004C29.6324 20.252 29.7644 20.812 29.9964 21.22C30.2364 21.62 30.6044 21.912 31.1004 22.096C31.5964 22.272 32.2684 22.36 33.1164 22.36C34.0124 22.36 35.0564 22.216 36.2484 21.928V24.796C35.5924 24.956 34.9724 25.072 34.3884 25.144C33.8124 25.216 33.2284 25.252 32.6364 25.252C31.0684 25.252 29.7884 25.016 28.7964 24.544C27.8124 24.072 27.0804 23.332 26.6004 22.324C26.1284 21.316 25.8924 20.008 25.8924 18.4C25.8924 16.216 26.3844 14.548 27.3684 13.396C28.3604 12.236 29.7724 11.656 31.6044 11.656C33.3484 11.656 34.6684 12.24 35.5644 13.408C36.4684 14.568 36.9204 16.268 36.9204 18.508V19.54ZM31.5804 14.056C31.1404 14.056 30.7764 14.156 30.4884 14.356C30.2084 14.556 29.9884 14.896 29.8284 15.376C29.6764 15.856 29.5964 16.512 29.5884 17.344H33.4884C33.4804 16.512 33.4044 15.856 33.2604 15.376C33.1164 14.896 32.9084 14.556 32.6364 14.356C32.3644 14.156 32.0124 14.056 31.5804 14.056Z" fill="black"/>
<path d="M49.2954 19.54H41.9754C42.0074 20.252 42.1394 20.812 42.3714 21.22C42.6114 21.62 42.9794 21.912 43.4754 22.096C43.9714 22.272 44.6434 22.36 45.4914 22.36C46.3874 22.36 47.4314 22.216 48.6234 21.928V24.796C47.9674 24.956 47.3474 25.072 46.7634 25.144C46.1874 25.216 45.6034 25.252 45.0114 25.252C43.4434 25.252 42.1634 25.016 41.1714 24.544C40.1874 24.072 39.4554 23.332 38.9754 22.324C38.5034 21.316 38.2674 20.008 38.2674 18.4C38.2674 16.216 38.7594 14.548 39.7434 13.396C40.7354 12.236 42.1474 11.656 43.9794 11.656C45.7234 11.656 47.0434 12.24 47.9394 13.408C48.8434 14.568 49.2954 16.268 49.2954 18.508V19.54ZM43.9554 14.056C43.5154 14.056 43.1514 14.156 42.8634 14.356C42.5834 14.556 42.3634 14.896 42.2034 15.376C42.0514 15.856 41.9714 16.512 41.9634 17.344H45.8634C45.8554 16.512 45.7794 15.856 45.6354 15.376C45.4914 14.896 45.2834 14.556 45.0114 14.356C44.7394 14.156 44.3874 14.056 43.9554 14.056Z" fill="black"/>
<path d="M51.1944 11.872H54.2424L54.5064 13.24H54.6744C55.1224 12.72 55.6464 12.328 56.2464 12.064C56.8544 11.792 57.5224 11.656 58.2504 11.656C59.4984 11.656 60.4864 12.048 61.2144 12.832C61.9504 13.608 62.3184 14.844 62.3184 16.54V25H58.6464V16.792C58.6464 16.104 58.5024 15.616 58.2144 15.328C57.9344 15.04 57.5264 14.896 56.9904 14.896C56.5904 14.896 56.1984 14.98 55.8144 15.148C55.4304 15.308 55.1144 15.548 54.8664 15.868V25H51.1944V11.872Z" fill="black"/>
<path d="M64.8116 25V11.872H68.4956V25H64.8116ZM66.6596 9.97599C65.8916 9.97599 65.3156 9.80399 64.9316 9.45999C64.5556 9.10799 64.3676 8.61199 64.3676 7.97199C64.3676 7.32399 64.5556 6.82799 64.9316 6.48399C65.3156 6.13199 65.8916 5.95599 66.6596 5.95599C67.4196 5.95599 67.9876 6.13199 68.3636 6.48399C68.7476 6.83599 68.9396 7.33199 68.9396 7.97199C68.9396 8.61199 68.7476 9.10799 68.3636 9.45999C67.9876 9.80399 67.4196 9.97599 66.6596 9.97599Z" fill="black"/>
<path d="M81.5689 19.54H74.2489C74.2809 20.252 74.4129 20.812 74.6449 21.22C74.8849 21.62 75.2529 21.912 75.7489 22.096C76.2449 22.272 76.9169 22.36 77.7649 22.36C78.6609 22.36 79.7049 22.216 80.8969 21.928V24.796C80.2409 24.956 79.6209 25.072 79.0369 25.144C78.4609 25.216 77.8769 25.252 77.2849 25.252C75.7169 25.252 74.4369 25.016 73.4449 24.544C72.4609 24.072 71.7289 23.332 71.2489 22.324C70.7769 21.316 70.5409 20.008 70.5409 18.4C70.5409 16.216 71.0329 14.548 72.0169 13.396C73.0089 12.236 74.4209 11.656 76.2529 11.656C77.9969 11.656 79.3169 12.24 80.2129 13.408C81.1169 14.568 81.5689 16.268 81.5689 18.508V19.54ZM76.2289 14.056C75.7889 14.056 75.4249 14.156 75.1369 14.356C74.8569 14.556 74.6369 14.896 74.4769 15.376C74.3249 15.856 74.2449 16.512 74.2369 17.344H78.1369C78.1289 16.512 78.0529 15.856 77.9089 15.376C77.7649 14.896 77.5569 14.556 77.2849 14.356C77.0129 14.156 76.6609 14.056 76.2289 14.056Z" fill="black"/>
<path d="M86.9479 25.252C85.5559 25.252 84.2919 25.064 83.1559 24.688V21.856C84.3319 22.232 85.5759 22.42 86.8879 22.42C87.6479 22.42 88.1959 22.312 88.5319 22.096C88.8759 21.872 89.0479 21.552 89.0479 21.136C89.0479 20.816 88.9639 20.572 88.7959 20.404C88.6279 20.228 88.3439 20.096 87.9439 20.008L86.0239 19.6C84.9359 19.368 84.1239 18.944 83.5879 18.328C83.0599 17.712 82.7959 16.88 82.7959 15.832C82.7959 14.992 83.0079 14.26 83.4319 13.636C83.8639 13.004 84.5079 12.516 85.3639 12.172C86.2199 11.828 87.2719 11.656 88.5199 11.656C89.6559 11.656 90.7159 11.784 91.6999 12.04V14.872C90.7719 14.616 89.7679 14.488 88.6879 14.488C86.9999 14.488 86.1559 14.924 86.1559 15.796C86.1559 16.084 86.2399 16.316 86.4079 16.492C86.5839 16.66 86.8679 16.788 87.2599 16.876L89.1799 17.284C90.2759 17.524 91.0879 17.94 91.6159 18.532C92.1519 19.124 92.4199 19.956 92.4199 21.028C92.4199 21.892 92.1999 22.644 91.7599 23.284C91.3279 23.916 90.6999 24.404 89.8759 24.748C89.0599 25.084 88.0839 25.252 86.9479 25.252Z" fill="black"/>
<path d="M14.7212 16.36V24.844C13.2092 25.084 11.8252 25.204 10.5692 25.204C7.37718 25.204 4.98518 24.468 3.39318 22.996C1.80918 21.516 1.01718 19.232 1.01718 16.144C1.01718 13.072 1.82118 10.784 3.42918 9.27999C5.04518 7.76799 7.38118 7.01199 10.4372 7.01199C11.8052 7.01199 13.0812 7.16399 14.2652 7.46799V10.6C13.0332 10.296 11.8812 10.144 10.8092 10.144C9.44918 10.152 8.33718 10.352 7.47318 10.744C6.61718 11.136 5.97718 11.776 5.55318 12.664C5.12918 13.544 4.91718 14.72 4.91718 16.192C4.91718 17.592 5.11718 18.728 5.51718 19.6C5.91718 20.464 6.50518 21.096 7.28118 21.496C8.05718 21.888 9.03718 22.084 10.2212 22.084C10.5732 22.084 10.9172 22.072 11.2532 22.048V16.36H14.7212Z" stroke="#E9E8D8" mask="url(#path-21-outside-1)"/>
<path d="M17.3507 11.872H20.3627L20.6507 13.648H20.8187C21.1467 12.976 21.5947 12.48 22.1627 12.16C22.7387 11.84 23.3947 11.68 24.1307 11.68C24.4267 11.68 24.7587 11.712 25.1267 11.776V15.16C24.8307 15.096 24.4187 15.064 23.8907 15.064C23.3307 15.064 22.7827 15.176 22.2467 15.4C21.7187 15.616 21.3107 15.916 21.0227 16.3V25H17.3507V11.872Z" stroke="#E9E8D8" mask="url(#path-21-outside-1)"/>
<path d="M36.9204 19.54H29.6004C29.6324 20.252 29.7644 20.812 29.9964 21.22C30.2364 21.62 30.6044 21.912 31.1004 22.096C31.5964 22.272 32.2684 22.36 33.1164 22.36C34.0124 22.36 35.0564 22.216 36.2484 21.928V24.796C35.5924 24.956 34.9724 25.072 34.3884 25.144C33.8124 25.216 33.2284 25.252 32.6364 25.252C31.0684 25.252 29.7884 25.016 28.7964 24.544C27.8124 24.072 27.0804 23.332 26.6004 22.324C26.1284 21.316 25.8924 20.008 25.8924 18.4C25.8924 16.216 26.3844 14.548 27.3684 13.396C28.3604 12.236 29.7724 11.656 31.6044 11.656C33.3484 11.656 34.6684 12.24 35.5644 13.408C36.4684 14.568 36.9204 16.268 36.9204 18.508V19.54ZM31.5804 14.056C31.1404 14.056 30.7764 14.156 30.4884 14.356C30.2084 14.556 29.9884 14.896 29.8284 15.376C29.6764 15.856 29.5964 16.512 29.5884 17.344H33.4884C33.4804 16.512 33.4044 15.856 33.2604 15.376C33.1164 14.896 32.9084 14.556 32.6364 14.356C32.3644 14.156 32.0124 14.056 31.5804 14.056Z" stroke="#E9E8D8" mask="url(#path-21-outside-1)"/>
<path d="M49.2954 19.54H41.9754C42.0074 20.252 42.1394 20.812 42.3714 21.22C42.6114 21.62 42.9794 21.912 43.4754 22.096C43.9714 22.272 44.6434 22.36 45.4914 22.36C46.3874 22.36 47.4314 22.216 48.6234 21.928V24.796C47.9674 24.956 47.3474 25.072 46.7634 25.144C46.1874 25.216 45.6034 25.252 45.0114 25.252C43.4434 25.252 42.1634 25.016 41.1714 24.544C40.1874 24.072 39.4554 23.332 38.9754 22.324C38.5034 21.316 38.2674 20.008 38.2674 18.4C38.2674 16.216 38.7594 14.548 39.7434 13.396C40.7354 12.236 42.1474 11.656 43.9794 11.656C45.7234 11.656 47.0434 12.24 47.9394 13.408C48.8434 14.568 49.2954 16.268 49.2954 18.508V19.54ZM43.9554 14.056C43.5154 14.056 43.1514 14.156 42.8634 14.356C42.5834 14.556 42.3634 14.896 42.2034 15.376C42.0514 15.856 41.9714 16.512 41.9634 17.344H45.8634C45.8554 16.512 45.7794 15.856 45.6354 15.376C45.4914 14.896 45.2834 14.556 45.0114 14.356C44.7394 14.156 44.3874 14.056 43.9554 14.056Z" stroke="#E9E8D8" mask="url(#path-21-outside-1)"/>
<path d="M51.1944 11.872H54.2424L54.5064 13.24H54.6744C55.1224 12.72 55.6464 12.328 56.2464 12.064C56.8544 11.792 57.5224 11.656 58.2504 11.656C59.4984 11.656 60.4864 12.048 61.2144 12.832C61.9504 13.608 62.3184 14.844 62.3184 16.54V25H58.6464V16.792C58.6464 16.104 58.5024 15.616 58.2144 15.328C57.9344 15.04 57.5264 14.896 56.9904 14.896C56.5904 14.896 56.1984 14.98 55.8144 15.148C55.4304 15.308 55.1144 15.548 54.8664 15.868V25H51.1944V11.872Z" stroke="#E9E8D8" mask="url(#path-21-outside-1)"/>
<path d="M64.8116 25V11.872H68.4956V25H64.8116ZM66.6596 9.97599C65.8916 9.97599 65.3156 9.80399 64.9316 9.45999C64.5556 9.10799 64.3676 8.61199 64.3676 7.97199C64.3676 7.32399 64.5556 6.82799 64.9316 6.48399C65.3156 6.13199 65.8916 5.95599 66.6596 5.95599C67.4196 5.95599 67.9876 6.13199 68.3636 6.48399C68.7476 6.83599 68.9396 7.33199 68.9396 7.97199C68.9396 8.61199 68.7476 9.10799 68.3636 9.45999C67.9876 9.80399 67.4196 9.97599 66.6596 9.97599Z" stroke="#E9E8D8" mask="url(#path-21-outside-1)"/>
<path d="M81.5689 19.54H74.2489C74.2809 20.252 74.4129 20.812 74.6449 21.22C74.8849 21.62 75.2529 21.912 75.7489 22.096C76.2449 22.272 76.9169 22.36 77.7649 22.36C78.6609 22.36 79.7049 22.216 80.8969 21.928V24.796C80.2409 24.956 79.6209 25.072 79.0369 25.144C78.4609 25.216 77.8769 25.252 77.2849 25.252C75.7169 25.252 74.4369 25.016 73.4449 24.544C72.4609 24.072 71.7289 23.332 71.2489 22.324C70.7769 21.316 70.5409 20.008 70.5409 18.4C70.5409 16.216 71.0329 14.548 72.0169 13.396C73.0089 12.236 74.4209 11.656 76.2529 11.656C77.9969 11.656 79.3169 12.24 80.2129 13.408C81.1169 14.568 81.5689 16.268 81.5689 18.508V19.54ZM76.2289 14.056C75.7889 14.056 75.4249 14.156 75.1369 14.356C74.8569 14.556 74.6369 14.896 74.4769 15.376C74.3249 15.856 74.2449 16.512 74.2369 17.344H78.1369C78.1289 16.512 78.0529 15.856 77.9089 15.376C77.7649 14.896 77.5569 14.556 77.2849 14.356C77.0129 14.156 76.6609 14.056 76.2289 14.056Z" stroke="#E9E8D8" mask="url(#path-21-outside-1)"/>
<path d="M86.9479 25.252C85.5559 25.252 84.2919 25.064 83.1559 24.688V21.856C84.3319 22.232 85.5759 22.42 86.8879 22.42C87.6479 22.42 88.1959 22.312 88.5319 22.096C88.8759 21.872 89.0479 21.552 89.0479 21.136C89.0479 20.816 88.9639 20.572 88.7959 20.404C88.6279 20.228 88.3439 20.096 87.9439 20.008L86.0239 19.6C84.9359 19.368 84.1239 18.944 83.5879 18.328C83.0599 17.712 82.7959 16.88 82.7959 15.832C82.7959 14.992 83.0079 14.26 83.4319 13.636C83.8639 13.004 84.5079 12.516 85.3639 12.172C86.2199 11.828 87.2719 11.656 88.5199 11.656C89.6559 11.656 90.7159 11.784 91.6999 12.04V14.872C90.7719 14.616 89.7679 14.488 88.6879 14.488C86.9999 14.488 86.1559 14.924 86.1559 15.796C86.1559 16.084 86.2399 16.316 86.4079 16.492C86.5839 16.66 86.8679 16.788 87.2599 16.876L89.1799 17.284C90.2759 17.524 91.0879 17.94 91.6159 18.532C92.1519 19.124 92.4199 19.956 92.4199 21.028C92.4199 21.892 92.1999 22.644 91.7599 23.284C91.3279 23.916 90.6999 24.404 89.8759 24.748C89.0599 25.084 88.0839 25.252 86.9479 25.252Z" stroke="#E9E8D8" mask="url(#path-21-outside-1)"/>
<defs>
<linearGradient id="paint0_linear" x1="126.518" y1="6.62591" x2="102.626" y2="29.6523" gradientUnits="userSpaceOnUse">
<stop offset="0.001" stop-color="#238D45"/>
<stop offset="0.978" stop-color="#146349"/>
</linearGradient>
<linearGradient id="paint1_linear" x1="119.113" y1="-0.631931" x2="94.8999" y2="22.7035" gradientUnits="userSpaceOnUse">
<stop offset="0.001" stop-color="#238D45"/>
<stop offset="0.978" stop-color="#146349"/>
</linearGradient>
<linearGradient id="paint2_linear" x1="122.468" y1="2.84576" x2="100.99" y2="26.5352" gradientUnits="userSpaceOnUse">
<stop stop-color="#4BBC45"/>
<stop offset="0.977" stop-color="#3D8749"/>
</linearGradient>
</defs>
</svg>
