<svg width="24" height="24" viewBox="0 0 24 24" fill="none" xmlns="http://www.w3.org/2000/svg">
<path d="M3.51468 3.51456C5.85786 1.17157 8.92898 -0.00012207 11.9999 -0.00012207C15.0708 -0.00012207 18.1421 1.17157 20.4853 3.51456C22.8283 5.85774 23.9998 8.92886 23.9998 11.9998C23.9998 15.0711 22.8283 18.142 20.4853 20.4852C18.1421 22.8282 15.0708 23.9999 11.9999 23.9999C8.92898 23.9999 5.85767 22.8282 3.51468 20.4852C1.17149 18.1422 0 15.0711 0 11.9998C0 8.92886 1.17149 5.85774 3.51468 3.51456ZM11.261 6.09016C11.261 5.73078 11.5524 5.43938 11.912 5.43938C12.2716 5.43938 12.563 5.73078 12.563 6.09016V11.4384H17.9113C18.2707 11.4384 18.5621 11.7299 18.5621 12.0892C18.5621 12.4488 18.2707 12.7402 17.9113 12.7402H12.5628V18.0885C12.5628 18.4479 12.2714 18.7393 11.9118 18.7393C11.5522 18.7393 11.2608 18.4479 11.2608 18.0885V12.74H5.91274C5.55337 12.74 5.26176 12.4486 5.26176 12.089C5.26176 11.7297 5.55317 11.4383 5.91274 11.4383H11.261V6.09016ZM11.9999 1.30165C9.26199 1.30165 6.52427 2.34619 4.43519 4.43527C2.34631 6.52415 1.30177 9.26206 1.30177 11.9998C1.30177 14.7377 2.34631 17.4756 4.43519 19.5645C6.52427 21.6536 9.26199 22.6981 11.9999 22.6981C14.7378 22.6981 17.4755 21.6536 19.5646 19.5645C21.6535 17.4756 22.6982 14.7375 22.6982 11.9998C22.6982 9.26206 21.6535 6.52415 19.5646 4.43527C17.4757 2.34619 14.7378 1.30165 11.9999 1.30165Z" fill="#82B5A5"/>
</svg>
