<svg width="16" height="16" viewBox="0 0 16 16" fill="none" xmlns="http://www.w3.org/2000/svg">
<path d="M4.66666 12C3.93333 12 3.34 12.6 3.34 13.3333C3.34 14.0666 3.93333 14.6666 4.66666 14.6666C5.4 14.6666 6 14.0666 6 13.3333C6 12.6 5.4 12 4.66666 12ZM0.666664 1.33331V2.66665H2L4.4 7.72665L3.5 9.35998C3.39333 9.54665 3.33333 9.76665 3.33333 9.99998C3.33333 10.7333 3.93333 11.3333 4.66666 11.3333H12.6667V9.99998H4.94666C4.85333 9.99998 4.78 9.92665 4.78 9.83331L4.8 9.75331L5.4 8.66665H10.3667C10.8667 8.66665 11.3067 8.39331 11.5333 7.97998L13.92 3.65331C13.9733 3.55998 14 3.44665 14 3.33331C14 2.96665 13.7 2.66665 13.3333 2.66665H3.47333L2.84666 1.33331H0.666664ZM11.3333 12C10.6 12 10.0067 12.6 10.0067 13.3333C10.0067 14.0666 10.6 14.6666 11.3333 14.6666C12.0667 14.6666 12.6667 14.0666 12.6667 13.3333C12.6667 12.6 12.0667 12 11.3333 12Z" fill="#82B5A5"/>
</svg>
